# xmcd
#
# Track frame offsets: 
#        150
#        11794
#        21960
#        33323
#        42294
#        54833
#        65009
#        76648
#        87712
#        98094
#        108190
#        121151
#        130407
#        141535
#        153263
#        166103
#        175294
#        185513
#        195591
#        206214
#
# Disc length: 2872 seconds
#
# Revision: 1
# Processed by: cddbd v1.5.2PL0 Copyright (c) Steve Scherf et al.
# Submitted via: ExactAudioCopyFreeDBPlugin 1.0
#
DISCID=0f0b3614
DTITLE=Various Artist - Train Songs:  200 Great Songs About Heroes, H
DTITLE=obos and Freight Trains [Membran Music Documents]
DYEAR=2011
DGENRE=Trains
TTITLE0=Jim Reeves - Yonder Comes a Sucker
TTITLE1=The Champs - Train to Nowhere
TTITLE2=Bill Haley and The Comets - Choo Choo Ch' Boogie
TTITLE3=Lloyd George - Come on Train
TTITLE4=Roy Acuff - Wabash Cannonball
TTITLE5=Hank Snow - Big Wheels
TTITLE6=Bonnie Lou - Train Whistle Blues
TTITLE7=Hank Williams - I Heard That Lonesome Whistle
TTITLE8=Rusty Draper - Freight Train
TTITLE9=Clyde Arnold - Black Smoke and Blue Tears
TTITLE10=Red Foley - Freight Train Boogie
TTITLE11=Bill Justis - Bop Train
TTITLE12=Hank Thompson - This Train
TTITLE13=Buck Griffin - Watchin' the 7:10 Roll By
TTITLE14=Arthur Baird's Skiffle Group - Union Train
TTITLE15=Teresa Brewer - If I Were a Train
TTITLE16=Curly Lee - They Call Me a Hobo
TTITLE17=Johnny Burnette - Midnight Train
TTITLE18=Johnny Horton - Big Wheels Rollin'
TTITLE19=Johnny Boni - Train Rock
EXTD=
EXTT0=
EXTT1=
EXTT2=
EXTT3=
EXTT4=
EXTT5=
EXTT6=
EXTT7=
EXTT8=
EXTT9=
EXTT10=
EXTT11=
EXTT12=
EXTT13=
EXTT14=
EXTT15=
EXTT16=
EXTT17=
EXTT18=
EXTT19=
PLAYORDER=
